<?xml version="1.0" standalone="no"?>
<!DOCTYPE svg PUBLIC "-//W3C//DTD SVG 20010904//EN"
 "http://www.w3.org/TR/2001/REC-SVG-20010904/DTD/svg10.dtd">
<svg version="1.0" xmlns="http://www.w3.org/2000/svg"
 width="232.000000pt" height="221.000000pt" viewBox="0 0 232.000000 221.000000"
 preserveAspectRatio="xMidYMid meet">
<metadata>
Created by potrace 1.10, written by Peter Selinger 2001-2011
</metadata>
<g transform="translate(0.000000,221.000000) scale(0.100000,-0.100000)"
fill="#000000" stroke="none">
<path d="M393 2044 c-56 -20 -78 -40 -91 -85 -9 -34 -12 -251 -13 -929 l-1
-884 22 -18 c20 -17 50 -18 370 -18 316 0 350 2 369 18 12 9 58 80 104 157 45
77 86 140 91 140 5 0 41 -56 81 -125 40 -69 86 -140 102 -157 l30 -33 364 0
c314 0 368 2 387 16 43 29 50 12 -233 504 -83 144 -262 452 -342 588 -64 109
-90 128 -127 93 -14 -13 -75 -110 -136 -217 -61 -107 -115 -196 -120 -199 -11
-7 -30 21 -149 227 -108 187 -139 225 -172 207 -23 -12 -16 -1 -163 -259 -138
-242 -211 -366 -234 -400 -16 -24 -17 -19 -22 140 -3 91 -4 357 -1 593 l4 427
196 -2 196 -3 5 -155 5 -155 66 -115 c75 -130 102 -154 142 -127 14 9 38 40
55 69 80 145 260 451 275 468 15 18 30 20 172 20 126 0 155 -3 155 -14 0 -8
-43 -89 -96 -181 -53 -92 -98 -182 -101 -200 -10 -65 71 -185 115 -171 25 8
38 29 235 366 170 292 207 359 207 376 0 6 -9 19 -21 30 -20 18 -42 19 -376
20 -304 0 -359 -2 -386 -15 -22 -11 -50 -46 -94 -120 -35 -57 -63 -105 -63
-108 0 -10 -54 -83 -61 -83 -5 0 -9 60 -9 134 0 126 -2 137 -23 161 l-22 27
-330 1 c-223 1 -340 -2 -362 -9z m695 -243 c3 -225 7 -244 46 -178 11 17 19
35 18 40 -1 4 2 7 8 7 5 0 10 6 10 14 0 7 8 24 19 37 10 13 27 40 37 59 60
109 137 230 147 231 32 4 723 6 729 3 3 -2 -16 -41 -43 -87 -26 -45 -57 -98
-67 -117 -35 -66 -293 -505 -302 -513 -4 -5 -25 21 -45 57 l-37 67 98 172 c53
95 112 196 131 225 l33 52 -215 0 -215 0 -23 -37 c-25 -41 -242 -414 -268
-462 -9 -16 -24 -42 -33 -56 l-18 -27 -19 21 c-10 11 -19 24 -19 28 0 4 -25
50 -55 102 l-55 93 0 169 0 169 -242 0 -243 0 1 -463 c2 -825 4 -933 18 -906
7 13 28 50 47 83 19 32 46 79 60 105 15 25 42 72 60 103 19 32 79 135 133 230
55 95 107 184 116 198 10 14 20 37 24 53 9 37 27 34 52 -11 84 -149 220 -382
239 -407 12 -16 24 -36 26 -42 2 -7 42 53 89 133 105 180 106 182 159 277 23
42 47 75 51 72 8 -5 76 -118 123 -205 20 -36 125 -217 214 -367 26 -46 67
-116 89 -155 23 -40 83 -143 133 -229 50 -86 93 -163 97 -172 6 -16 -21 -17
-367 -15 l-372 3 -16 27 c-9 15 -52 89 -95 165 -112 193 -99 179 -124 135 -12
-20 -29 -50 -37 -67 -9 -16 -47 -82 -84 -145 l-69 -115 -354 -3 -353 -2 3 892
c3 891 3 893 24 924 12 17 30 35 42 40 12 5 169 8 356 7 l335 -1 3 -211z"/>
<path d="M940 1006 c-12 -15 -72 -119 -279 -481 -57 -99 -112 -192 -122 -207
-11 -15 -19 -30 -19 -33 0 -3 96 -5 213 -5 l212 0 105 182 c58 99 106 187 108
194 2 7 -17 45 -41 86 -24 40 -65 111 -92 158 -72 126 -70 123 -85 106z m98
-207 c39 -68 72 -130 72 -139 0 -19 -174 -320 -192 -331 -22 -14 -318 -11
-318 3 0 12 22 52 208 373 131 227 131 227 145 222 7 -2 45 -59 85 -128z"/>
<path d="M1488 943 c-25 -43 -55 -94 -66 -113 -11 -19 -36 -64 -57 -100 l-37
-65 31 -60 c33 -64 36 -69 126 -223 l60 -102 213 0 c116 0 212 2 212 4 0 4
-44 79 -184 317 -28 47 -94 160 -146 252 -52 91 -98 167 -101 167 -3 0 -26
-35 -51 -77z m163 -188 c51 -88 115 -198 142 -245 28 -47 61 -103 73 -125 13
-22 24 -46 24 -52 0 -18 -299 -18 -323 0 -21 15 -187 305 -187 325 0 15 45
101 116 222 30 52 38 60 49 49 8 -8 55 -86 106 -174z"/>
</g>
</svg>
