<svg version="1.1" id="Layer_1" xmlns="http://www.w3.org/2000/svg" xmlns:xlink="http://www.w3.org/1999/xlink" x="0px" y="0px"
	 width="100%" viewBox="0 0 340 334" enable-background="new 0 0 340 334" xml:space="preserve">
<path fill="#FEFFFF" opacity="1.000000" stroke="none" 
	d="
M188.000000,335.000000 
	C125.333344,335.000000 63.166687,335.000000 1.000025,335.000000 
	C1.000017,223.666702 1.000017,112.333397 1.000008,1.000070 
	C114.333282,1.000046 227.666565,1.000046 340.999878,1.000023 
	C340.999939,112.333260 340.999939,223.666519 340.999969,334.999878 
	C290.166656,335.000000 239.333328,335.000000 188.000000,335.000000 
M171.286850,68.014343 
	C170.564255,68.656891 169.841644,69.299431 169.119049,69.941971 
	C169.570908,70.263435 170.022766,70.584892 170.474625,70.906357 
	C170.982635,69.937088 171.490662,68.967819 172.660278,67.937302 
	C173.611633,67.226395 174.562988,66.515480 175.514328,65.804573 
	C175.105743,65.451828 174.697144,65.099083 174.288544,64.746346 
	C173.526123,65.831406 172.763702,66.916466 171.286850,68.014343 
M177.697266,62.931774 
	C179.536713,61.056858 181.376144,59.181938 183.215576,57.307018 
	C182.582550,56.809536 181.949539,56.312057 181.316513,55.814575 
	C179.877274,58.209446 178.438019,60.604321 176.719391,63.107983 
	C176.813156,63.072346 176.906921,63.036709 177.697266,62.931774 
M153.895172,80.700676 
	C153.802780,80.652344 153.710403,80.604019 153.618011,80.555695 
	C153.740662,80.707558 153.863312,80.859421 154.000916,81.739624 
	C154.384506,83.950897 154.912231,86.247925 157.592606,83.596329 
	C160.644485,80.577217 163.476913,77.332558 166.332474,74.121681 
	C166.931488,73.448128 167.215942,72.494835 167.645340,71.670448 
	C165.742340,72.047966 164.704254,73.054115 163.559525,73.919167 
	C160.400513,76.306351 157.196899,78.634537 153.895172,80.700676 
M255.422302,113.867508 
	C255.950134,111.850952 256.477966,109.834404 256.969238,107.957443 
	C244.674271,107.957443 232.874847,107.365776 221.159653,108.106331 
	C206.320419,109.044365 196.064178,116.957939 191.147171,131.201584 
	C190.120819,134.174728 189.670044,137.346588 189.086136,139.858475 
	C196.957260,140.202637 203.897507,140.993530 210.787292,140.678970 
	C218.687851,140.318268 226.862961,140.045883 234.343887,137.810837 
	C245.517685,134.472458 251.619553,125.424011 255.422302,113.867508 
M220.221268,194.191025 
	C214.458694,190.597260 208.486572,187.653564 201.959534,187.745163 
	C201.959534,192.749680 202.059555,197.362350 201.933975,201.968857 
	C201.780197,207.608765 200.899323,213.280029 201.279022,218.873520 
	C202.350357,234.656067 207.892700,245.857346 224.387466,252.095078 
	C227.618896,253.317108 231.001358,254.139740 234.680908,255.258026 
	C234.680908,247.951523 234.671219,241.847473 234.682816,235.743469 
	C234.711853,220.457840 234.748901,205.172745 220.221268,194.191025 
M128.692719,232.400543 
	C144.510544,228.115753 152.648727,217.410126 154.879044,201.184494 
	C142.276459,201.184494 129.919189,200.255676 117.758789,201.406723 
	C100.421463,203.047791 90.174927,216.018967 87.563049,234.265671 
	C101.109047,233.733078 114.509315,233.206207 128.692719,232.400543 
M142.165131,116.442352 
	C139.555817,96.171288 121.594315,87.639526 110.063774,86.673065 
	C110.063774,98.201424 109.813530,109.753304 110.122063,121.290253 
	C110.592224,138.870758 124.695778,152.717178 142.217972,153.371643 
	C142.217972,148.791641 142.193787,144.210388 142.223465,139.629456 
	C142.271759,132.177612 142.355286,124.725990 142.165131,116.442352 
M161.899811,91.419014 
	C149.494904,107.183945 150.978394,122.869118 162.510757,136.143082 
	C170.757767,128.038483 179.508942,120.379791 187.137650,111.731026 
	C200.077850,97.060577 196.676498,78.805046 187.593597,67.150208 
	C179.214462,74.969948 170.733658,82.884552 161.899811,91.419014 
M174.332718,256.850250 
	C178.417313,251.427246 183.184097,246.382263 186.442642,240.501556 
	C192.961761,228.736542 189.868378,211.563293 182.328430,205.015121 
	C178.248459,208.183990 174.087845,211.013138 170.408844,214.370087 
	C165.270401,219.058762 160.208282,223.891830 155.613968,229.104218 
	C143.748199,242.566299 146.864655,262.519409 156.517563,273.717133 
	C162.277557,268.256500 168.040543,262.793060 174.332718,256.850250 
M136.396637,177.125183 
	C129.613556,170.307907 122.880623,163.439774 116.031487,156.689514 
	C110.584908,151.321564 104.177353,147.565094 96.524361,146.428467 
	C85.790131,144.834213 76.490135,148.251923 67.503204,154.681076 
	C75.763817,162.935699 83.020035,171.198593 91.310234,178.244980 
	C105.425499,190.242477 119.201912,191.116638 134.426437,182.057617 
	C135.945160,181.153915 139.035706,180.673676 136.396637,177.125183 
M270.844116,190.387604 
	C272.879547,189.176056 274.914978,187.964523 276.435059,187.059723 
	C269.698547,179.958847 263.561157,173.208710 257.113220,166.769592 
	C250.298523,159.964157 242.557770,154.656921 232.618011,153.432861 
	C222.409439,152.175690 214.001511,156.111359 205.809448,161.935211 
	C213.356323,169.582245 220.337494,176.912033 227.596878,183.955048 
	C240.187469,196.170364 254.305588,198.321014 270.844116,190.387604 
M68.001076,85.796616 
	C68.019775,86.293373 68.021584,86.791695 68.067551,87.285919 
	C68.081207,87.432709 68.201820,87.582909 68.306328,87.702881 
	C68.369370,87.775238 68.495796,87.792374 68.684021,87.872986 
	C68.684021,77.617661 68.684021,67.403908 68.684021,57.190163 
	C68.455360,57.190273 68.226692,57.190388 67.998032,57.190502 
	C67.998032,66.443306 67.998032,75.696114 68.001076,85.796616 
M150.708679,74.455063 
	C150.596268,75.035118 150.483871,75.615173 150.371475,76.195229 
	C150.783554,76.200844 151.195618,76.206451 151.607697,76.212059 
	C151.509445,75.628555 151.411179,75.045052 150.708679,74.455063 
z"/>
<path fill="#96B0CA" opacity="1.000000" stroke="none" 
	d="
M255.263275,114.231590 
	C251.619553,125.424011 245.517685,134.472458 234.343887,137.810837 
	C226.862961,140.045883 218.687851,140.318268 210.787292,140.678970 
	C203.897507,140.993530 196.957260,140.202637 189.086136,139.858475 
	C189.670044,137.346588 190.120819,134.174728 191.147171,131.201584 
	C196.064178,116.957939 206.320419,109.044365 221.159653,108.106331 
	C232.874847,107.365776 244.674271,107.957443 256.969238,107.957443 
	C256.477966,109.834404 255.950134,111.850952 255.263275,114.231590 
z"/>
<path fill="#96B0CA" opacity="1.000000" stroke="none" 
	d="
M220.524017,194.388062 
	C234.748901,205.172745 234.711853,220.457840 234.682816,235.743469 
	C234.671219,241.847473 234.680908,247.951523 234.680908,255.258026 
	C231.001358,254.139740 227.618896,253.317108 224.387466,252.095078 
	C207.892700,245.857346 202.350357,234.656067 201.279022,218.873520 
	C200.899323,213.280029 201.780197,207.608765 201.933975,201.968857 
	C202.059555,197.362350 201.959534,192.749680 201.959534,187.745163 
	C208.486572,187.653564 214.458694,190.597260 220.524017,194.388062 
z"/>
<path fill="#96AFCA" opacity="1.000000" stroke="none" 
	d="
M128.301147,232.539948 
	C114.509315,233.206207 101.109047,233.733078 87.563049,234.265671 
	C90.174927,216.018967 100.421463,203.047791 117.758789,201.406723 
	C129.919189,200.255676 142.276459,201.184494 154.879044,201.184494 
	C152.648727,217.410126 144.510544,228.115753 128.301147,232.539948 
z"/>
<path fill="#96AFCA" opacity="1.000000" stroke="none" 
	d="
M142.294540,116.858307 
	C142.355286,124.725990 142.271759,132.177612 142.223465,139.629456 
	C142.193787,144.210388 142.217972,148.791641 142.217972,153.371643 
	C124.695778,152.717178 110.592224,138.870758 110.122063,121.290253 
	C109.813530,109.753304 110.063774,98.201424 110.063774,86.673065 
	C121.594315,87.639526 139.555817,96.171288 142.294540,116.858307 
z"/>
<path fill="#96AFCA" opacity="1.000000" stroke="none" 
	d="
M162.076340,91.109085 
	C170.733658,82.884552 179.214462,74.969948 187.593597,67.150208 
	C196.676498,78.805046 200.077850,97.060577 187.137650,111.731026 
	C179.508942,120.379791 170.757767,128.038483 162.510757,136.143082 
	C150.978394,122.869118 149.494904,107.183945 162.076340,91.109085 
z"/>
<path fill="#96AFCA" opacity="1.000000" stroke="none" 
	d="
M174.068115,257.089905 
	C168.040543,262.793060 162.277557,268.256500 156.517563,273.717133 
	C146.864655,262.519409 143.748199,242.566299 155.613968,229.104218 
	C160.208282,223.891830 165.270401,219.058762 170.408844,214.370087 
	C174.087845,211.013138 178.248459,208.183990 182.328430,205.015121 
	C189.868378,211.563293 192.961761,228.736542 186.442642,240.501556 
	C183.184097,246.382263 178.417313,251.427246 174.068115,257.089905 
z"/>
<path fill="#96AFCA" opacity="1.000000" stroke="none" 
	d="
M136.673096,177.340958 
	C139.035706,180.673676 135.945160,181.153915 134.426437,182.057617 
	C119.201912,191.116638 105.425499,190.242477 91.310234,178.244980 
	C83.020035,171.198593 75.763817,162.935699 67.503204,154.681076 
	C76.490135,148.251923 85.790131,144.834213 96.524361,146.428467 
	C104.177353,147.565094 110.584908,151.321564 116.031487,156.689514 
	C122.880623,163.439774 129.613556,170.307907 136.673096,177.340958 
z"/>
<path fill="#96AFCA" opacity="1.000000" stroke="none" 
	d="
M270.512329,190.560760 
	C254.305588,198.321014 240.187469,196.170364 227.596878,183.955048 
	C220.337494,176.912033 213.356323,169.582245 205.809448,161.935211 
	C214.001511,156.111359 222.409439,152.175690 232.618011,153.432861 
	C242.557770,154.656921 250.298523,159.964157 257.113220,166.769592 
	C263.561157,173.208710 269.698547,179.958847 276.435059,187.059723 
	C274.914978,187.964523 272.879547,189.176056 270.512329,190.560760 
z"/>
<path fill="#F2F8FA" opacity="1.000000" stroke="none" 
	d="
M154.010910,80.986053 
	C157.196899,78.634537 160.400513,76.306351 163.559525,73.919167 
	C164.704254,73.054115 165.742340,72.047966 167.645340,71.670448 
	C167.215942,72.494835 166.931488,73.448128 166.332474,74.121681 
	C163.476913,77.332558 160.644485,80.577217 157.592606,83.596329 
	C154.912231,86.247925 154.384506,83.950897 154.000381,81.369812 
	C153.999847,81.000000 154.010910,80.986053 154.010910,80.986053 
z"/>
<path fill="#E6ECF2" opacity="1.000000" stroke="none" 
	d="
M67.999557,85.372772 
	C67.998032,75.696114 67.998032,66.443306 67.998032,57.190502 
	C68.226692,57.190388 68.455360,57.190273 68.684021,57.190163 
	C68.684021,67.403908 68.684021,77.617661 68.684021,87.872986 
	C68.495796,87.792374 68.369370,87.775238 68.306328,87.702881 
	C68.201820,87.582909 68.081207,87.432709 68.067551,87.285919 
	C68.021584,86.791695 68.019775,86.293373 67.999557,85.372772 
z"/>
<path fill="#F2F8FA" opacity="1.000000" stroke="none" 
	d="
M176.998779,62.999195 
	C178.438019,60.604321 179.877274,58.209446 181.316513,55.814575 
	C181.949539,56.312057 182.582550,56.809536 183.215576,57.307018 
	C181.376144,59.181938 179.536713,61.056858 177.348633,62.965889 
	C177.000000,63.000000 176.998779,62.999199 176.998779,62.999195 
z"/>
<path fill="#F2F8FA" opacity="1.000000" stroke="none" 
	d="
M171.998688,67.998558 
	C171.490662,68.967819 170.982635,69.937088 170.474625,70.906357 
	C170.022766,70.584892 169.570908,70.263435 169.119049,69.941971 
	C169.841644,69.299431 170.564255,68.656891 171.643433,68.007172 
	C172.000000,68.000000 171.998688,67.998558 171.998688,67.998558 
z"/>
<path fill="#F2F8FA" opacity="1.000000" stroke="none" 
	d="
M172.000641,68.000763 
	C172.763702,66.916466 173.526123,65.831406 174.288544,64.746346 
	C174.697144,65.099083 175.105743,65.451828 175.514328,65.804573 
	C174.562988,66.515480 173.611633,67.226395 172.329483,67.967926 
	C171.998688,67.998558 172.000000,68.000000 172.000641,68.000763 
z"/>
<path fill="#F2F8FA" opacity="1.000000" stroke="none" 
	d="
M151.010803,74.458305 
	C151.411179,75.045052 151.509445,75.628555 151.607697,76.212059 
	C151.195618,76.206451 150.783554,76.200844 150.371475,76.195229 
	C150.483871,75.615173 150.596268,75.035118 151.010803,74.458305 
z"/>
<path fill="#F2F8FA" opacity="1.000000" stroke="none" 
	d="
M153.992905,81.005646 
	C153.863312,80.859421 153.740662,80.707558 153.618011,80.555695 
	C153.710403,80.604019 153.802780,80.652344 153.953033,80.843369 
	C154.010910,80.986053 153.999847,81.000000 153.992905,81.005646 
z"/>
<path fill="#F2F8FA" opacity="1.000000" stroke="none" 
	d="
M177.000336,63.000534 
	C176.906921,63.036709 176.813156,63.072346 176.859085,63.053589 
	C176.998779,62.999199 177.000000,63.000000 177.000336,63.000534 
z"/>
</svg>